<?xml version="1.0" encoding="UTF-8"?> <!-- Generator: Adobe Illustrator 25.2.0, SVG Export Plug-In . SVG Version: 6.00 Build 0) --> <svg xmlns="http://www.w3.org/2000/svg" xmlns:xlink="http://www.w3.org/1999/xlink" version="1.1" id="Layer_1" x="0px" y="0px" viewBox="0 0 612 792" style="enable-background:new 0 0 612 792;" xml:space="preserve"> <g> <path d="M77.4,467.55c3.42-7.6,8.91-11.9,15.37-14.81c10.75-4.84,21.63-9.4,32.6-13.72c8.47-3.34,8.83-3.99,2.32-12.01 c9.73-3.83,18.89-8.2,28.51-11c8.09-2.35,15.18-5.84,21.21-11.53c5.94-5.6,11.79-11.3,17.45-17.17c5.62-5.82,12.17-8.48,20.25-7.19 c14.04,2.24,25.25-2.78,36.08-11.79c18.78-15.65,39.26-29.06,60.77-41.95c1.89,3.15,3.3,5.93,5.1,8.43 c7.27,10.11,14.41,20.34,22.12,30.11c3.58,4.54,8.09,7.46,14.83,4.12c2.09-1.03,6.94,1.07,9.13,3.18 c4.51,4.35,8.08,9.67,12.02,14.6c4.26,5.33,8.13,11.02,12.83,15.91c6.57,6.83,11.85,6.46,19.05,0.33 c5.05-4.3,10.29-8.5,15.96-11.91c7.07-4.26,12.15-3.02,17.71,3.17c1.67,1.85,3.34,3.76,4.63,5.88 c9.17,15.02,23.12,25.29,36.6,35.77c4.81,3.74,12.02,4.32,18.07,6.52c11.22,4.09,22.4,8.27,33.56,12.52 c1.16,0.44,2.05,1.57,3.07,2.37c-0.09,0.45-0.19,0.9-0.28,1.35c-3.41-0.44-7.1-0.2-10.19-1.44c-13.25-5.3-23.76-2.79-31.26,9.81 c-0.14,0.23-0.56,0.29-1.24,0.6c-0.48-0.72-1.09-1.43-1.48-2.25c-4.75-9.88-12.22-16.98-22.22-21.31 c-7.02-3.04-12.45-7.17-16.62-14.11c-8.77-14.6-23.68-16.53-37.1-5.77c-1.33,1.07-2.3,2.79-3.01,4.4 c-2.62,5.93-5.11,11.93-7.54,17.94c-1.13,2.79-2.85,3.78-6.02,3.92c-5.8,0.25-11.56,1.35-17.83,2.16c1.01-1.46,2.1-3.53,3.64-5.19 c6-6.47,12.24-12.73,18.19-19.25c2.02-2.21,3.46-4.95,5.9-8.52c-3.6,0-5.68-0.29-7.64,0.07c-2.43,0.46-4.79,1.39-7.13,2.24 c-11.19,4.07-13.53,3.63-21.65-5.34c-3.34-3.68-6.15-7.85-9.18-11.81c-2.6-3.4-4.13-3.41-6.23,0.29c-1.68,2.96-3.1,6.07-4.63,9.11 c-0.5-0.01-1-0.02-1.5-0.03c-1.19-3.88-2.44-7.74-3.56-11.64c-1.06-3.67-1.84-7.42-3-11.05c-1.05-3.3-3.21-5.03-6.87-3.69 c-4.15,1.52-7.02-0.24-9.42-3.53c-2.45-3.36-4.85-6.78-7.62-9.86c-1.06-1.18-3.42-2.37-4.6-1.94c-1.19,0.43-2.38,2.88-2.34,4.41 c0.21,8.14,1,16.27,1.16,24.42c0.07,3.49-0.91,6.99-1.38,10.49c-0.43,3.24-1.29,6.52-1.11,9.74c0.39,6.71,1.34,13.38,2.07,20.07 c-0.53,0.28-1.05,0.55-1.58,0.83c-2.89-4.49-6-8.85-8.61-13.49c-3.69-6.56-4.06-14.85-10.65-19.99c-0.95-0.74-0.84-3.14-0.81-4.76 c0.06-4.16,0.39-8.32,0.54-12.48c0.22-5.99-0.14-11.55-3.56-17.16c-2.91-4.76-3.57-10.88-5.3-16.65 c-4.05,4.86-8.17,9.22-11.56,14.09c-1.8,2.58-3.2,6.01-3.31,9.1c-0.21,5.61,0.48,11.29,1.16,16.9c0.86,7.11-1.3,13.34-5.25,20.72 c0-2.91-0.09-4.45,0.02-5.99c0.3-4.25-0.89-7.57-4.39-10.49c-5.84-4.87-7.74-11.42-6.19-18.91c0.3-1.43,0.5-2.88,1.01-5.86 c-9,5.03-17.25,8.96-24.72,14.03c-7.08,4.81-9.17,13.02-8.44,20.89c0.81,8.78-2.91,13.56-9.98,17.28 c-4.11,2.16-7.91,4.9-12.74,7.95c2.91-4.98,5.33-9.12,7.75-13.26c-0.42-0.5-0.83-1-1.25-1.51c-5.9,3.64-11.81,7.28-17.71,10.92 c-0.25-0.37-0.49-0.74-0.74-1.11c4.56-4.42,9.12-8.83,13.68-13.25c-0.21-0.36-0.41-0.71-0.62-1.07c-1.18,0.15-2.52,0-3.53,0.5 c-6.88,3.37-14.19,4.14-21.74,4.56c-3.75,0.21-8.05,1.66-10.97,3.97c-17.86,14.09-37.48,24.39-59.53,30.3 C96.52,460.28,87.45,464.06,77.4,467.55z"></path> </g> </svg> 