<svg width="460" height="142" viewBox="0 0 460 142" fill="none" xmlns="http://www.w3.org/2000/svg">
<path d="M0 141.17C3.42 133.57 8.91 129.27 15.37 126.36C26.12 121.52 37 116.96 47.97 112.64C56.44 109.3 56.8 108.65 50.29 100.63C60.02 96.8 69.18 92.43 78.8 89.63C86.89 87.28 93.98 83.79 100.01 78.1C105.95 72.5 111.8 66.8 117.46 60.93C123.08 55.11 129.63 52.45 137.71 53.74C151.75 55.98 162.96 50.96 173.79 41.95C192.57 26.3 213.05 12.89 234.56 0C236.45 3.15 237.86 5.92999 239.66 8.42999C246.93 18.54 254.07 28.77 261.78 38.54C265.36 43.08 269.87 46 276.61 42.66C278.7 41.63 283.55 43.73 285.74 45.84C290.25 50.19 293.82 55.51 297.76 60.44C302.02 65.77 305.89 71.46 310.59 76.35C317.16 83.18 322.44 82.81 329.64 76.68C334.69 72.38 339.93 68.18 345.6 64.77C352.67 60.51 357.75 61.75 363.31 67.94C364.98 69.79 366.65 71.7 367.94 73.82C377.11 88.84 391.06 99.11 404.54 109.59C409.35 113.33 416.56 113.91 422.61 116.11C433.83 120.2 445.01 124.38 456.17 128.63C457.33 129.07 458.22 130.2 459.24 131C459.15 131.45 459.05 131.9 458.96 132.35C455.55 131.91 451.86 132.15 448.77 130.91C435.52 125.61 425.01 128.12 417.51 140.72C417.37 140.95 416.95 141.01 416.27 141.32C415.79 140.6 415.18 139.89 414.79 139.07C410.04 129.19 402.57 122.09 392.57 117.76C385.55 114.72 380.12 110.59 375.95 103.65C367.18 89.05 352.27 87.12 338.85 97.88C337.52 98.95 336.55 100.67 335.84 102.28C333.22 108.21 330.73 114.21 328.3 120.22C327.17 123.01 325.45 124 322.28 124.14C316.48 124.39 310.72 125.49 304.45 126.3C305.46 124.84 306.55 122.77 308.09 121.11C314.09 114.64 320.33 108.38 326.28 101.86C328.3 99.65 329.74 96.91 332.18 93.34C328.58 93.34 326.5 93.05 324.54 93.41C322.11 93.87 319.75 94.8 317.41 95.65C306.22 99.72 303.88 99.28 295.76 90.31C292.42 86.63 289.61 82.46 286.58 78.5C283.98 75.1 282.45 75.09 280.35 78.79C278.67 81.75 277.25 84.86 275.72 87.9C275.22 87.89 274.72 87.88 274.22 87.87C273.03 83.99 271.78 80.13 270.66 76.23C269.6 72.56 268.82 68.81 267.66 65.18C266.61 61.88 264.45 60.15 260.79 61.49C256.64 63.01 253.77 61.25 251.37 57.96C248.92 54.6 246.52 51.18 243.75 48.1C242.69 46.92 240.33 45.73 239.15 46.16C237.96 46.59 236.77 49.04 236.81 50.57C237.02 58.71 237.81 66.84 237.97 74.99C238.04 78.48 237.06 81.98 236.59 85.48C236.16 88.72 235.3 92 235.48 95.22C235.87 101.93 236.82 108.6 237.55 115.29C237.02 115.57 236.5 115.84 235.97 116.12C233.08 111.63 229.97 107.27 227.36 102.63C223.67 96.07 223.3 87.78 216.71 82.64C215.76 81.9 215.87 79.5 215.9 77.88C215.96 73.72 216.29 69.56 216.44 65.4C216.66 59.41 216.3 53.85 212.88 48.24C209.97 43.48 209.31 37.36 207.58 31.59C203.53 36.45 199.41 40.81 196.02 45.68C194.22 48.26 192.82 51.69 192.71 54.78C192.5 60.39 193.19 66.07 193.87 71.68C194.73 78.79 192.57 85.02 188.62 92.4C188.62 89.49 188.53 87.95 188.64 86.41C188.94 82.16 187.75 78.84 184.25 75.92C178.41 71.05 176.51 64.5 178.06 57.01C178.36 55.58 178.56 54.13 179.07 51.15C170.07 56.18 161.82 60.11 154.35 65.18C147.27 69.99 145.18 78.2 145.91 86.07C146.72 94.85 143 99.63 135.93 103.35C131.82 105.51 128.02 108.25 123.19 111.3C126.1 106.32 128.52 102.18 130.94 98.04C130.52 97.54 130.11 97.04 129.69 96.53C123.79 100.17 117.88 103.81 111.98 107.45C111.73 107.08 111.49 106.71 111.24 106.34C115.8 101.92 120.36 97.51 124.92 93.09C124.71 92.73 124.51 92.38 124.3 92.02C123.12 92.17 121.78 92.02 120.77 92.52C113.89 95.89 106.58 96.66 99.03 97.08C95.28 97.29 90.98 98.74 88.06 101.05C70.2 115.14 50.58 125.44 28.53 131.35C19.12 133.9 10.05 137.68 0 141.17Z" fill="#40916C" fill-opacity="0.3"/>
</svg>
